<mxfile host="app.diagrams.net" modified="2024-06-07T20:28:20.977Z" agent="Mozilla/5.0 (Windows NT 10.0; Win64; x64) AppleWebKit/537.36 (KHTML, like Gecko) Chrome/125.0.0.0 Safari/537.36" etag="HS0jZgJVWsVAWXo0yy0C" version="24.5.2" type="github">
  <diagram name="Page-1" id="mURi4eA8-3CM0eD0AN-O">
    <mxGraphModel dx="880" dy="468" grid="1" gridSize="10" guides="1" tooltips="1" connect="1" arrows="1" fold="1" page="1" pageScale="1" pageWidth="850" pageHeight="1100" math="0" shadow="0">
      <root>
        <mxCell id="0" />
        <mxCell id="1" parent="0" />
        <mxCell id="1s8Oqz2JoPXFqwjpF97E-1" value="&lt;b&gt;BILLING&lt;/b&gt;" style="swimlane;fontStyle=0;childLayout=stackLayout;horizontal=1;startSize=30;horizontalStack=0;resizeParent=1;resizeParentMax=0;resizeLast=0;collapsible=1;marginBottom=0;whiteSpace=wrap;html=1;fontSize=10;" vertex="1" parent="1">
          <mxGeometry x="360" y="162" width="160" height="130" as="geometry" />
        </mxCell>
        <mxCell id="1s8Oqz2JoPXFqwjpF97E-2" value="BILLING_ID (PK)" style="text;strokeColor=none;fillColor=none;align=left;verticalAlign=middle;spacingLeft=4;spacingRight=4;overflow=hidden;points=[[0,0.5],[1,0.5]];portConstraint=eastwest;rotatable=0;whiteSpace=wrap;html=1;fontSize=10;" vertex="1" parent="1s8Oqz2JoPXFqwjpF97E-1">
          <mxGeometry y="30" width="160" height="20" as="geometry" />
        </mxCell>
        <mxCell id="1s8Oqz2JoPXFqwjpF97E-21" value="BILLING_HEAD" style="text;strokeColor=none;fillColor=none;align=left;verticalAlign=middle;spacingLeft=4;spacingRight=4;overflow=hidden;points=[[0,0.5],[1,0.5]];portConstraint=eastwest;rotatable=0;whiteSpace=wrap;html=1;fontSize=10;" vertex="1" parent="1s8Oqz2JoPXFqwjpF97E-1">
          <mxGeometry y="50" width="160" height="20" as="geometry" />
        </mxCell>
        <mxCell id="1s8Oqz2JoPXFqwjpF97E-25" value="BILLING_TIMESTAMP" style="text;strokeColor=none;fillColor=none;align=left;verticalAlign=middle;spacingLeft=4;spacingRight=4;overflow=hidden;points=[[0,0.5],[1,0.5]];portConstraint=eastwest;rotatable=0;whiteSpace=wrap;html=1;fontSize=10;" vertex="1" parent="1s8Oqz2JoPXFqwjpF97E-1">
          <mxGeometry y="70" width="160" height="20" as="geometry" />
        </mxCell>
        <mxCell id="1s8Oqz2JoPXFqwjpF97E-24" value="BILLING_STATUS" style="text;strokeColor=none;fillColor=none;align=left;verticalAlign=middle;spacingLeft=4;spacingRight=4;overflow=hidden;points=[[0,0.5],[1,0.5]];portConstraint=eastwest;rotatable=0;whiteSpace=wrap;html=1;fontSize=10;" vertex="1" parent="1s8Oqz2JoPXFqwjpF97E-1">
          <mxGeometry y="90" width="160" height="20" as="geometry" />
        </mxCell>
        <mxCell id="1s8Oqz2JoPXFqwjpF97E-23" value="BILLING_REMARK" style="text;strokeColor=none;fillColor=none;align=left;verticalAlign=middle;spacingLeft=4;spacingRight=4;overflow=hidden;points=[[0,0.5],[1,0.5]];portConstraint=eastwest;rotatable=0;whiteSpace=wrap;html=1;fontSize=10;" vertex="1" parent="1s8Oqz2JoPXFqwjpF97E-1">
          <mxGeometry y="110" width="160" height="20" as="geometry" />
        </mxCell>
        <mxCell id="1s8Oqz2JoPXFqwjpF97E-10" value="&lt;b&gt;DIALYSIS_SCHEDULE&lt;/b&gt;" style="swimlane;fontStyle=0;childLayout=stackLayout;horizontal=1;startSize=30;horizontalStack=0;resizeParent=1;resizeParentMax=0;resizeLast=0;collapsible=1;marginBottom=0;whiteSpace=wrap;html=1;fontSize=10;" vertex="1" parent="1">
          <mxGeometry x="120" y="280" width="140" height="230" as="geometry" />
        </mxCell>
        <mxCell id="1s8Oqz2JoPXFqwjpF97E-11" value="D_SCHEDULE_ID (PK)" style="text;strokeColor=none;fillColor=none;align=left;verticalAlign=middle;spacingLeft=4;spacingRight=4;overflow=hidden;points=[[0,0.5],[1,0.5]];portConstraint=eastwest;rotatable=0;whiteSpace=wrap;html=1;fontSize=10;" vertex="1" parent="1s8Oqz2JoPXFqwjpF97E-10">
          <mxGeometry y="30" width="140" height="20" as="geometry" />
        </mxCell>
        <mxCell id="1s8Oqz2JoPXFqwjpF97E-44" value="PATIENT_ID (FK)" style="text;strokeColor=none;fillColor=none;align=left;verticalAlign=middle;spacingLeft=4;spacingRight=4;overflow=hidden;points=[[0,0.5],[1,0.5]];portConstraint=eastwest;rotatable=0;whiteSpace=wrap;html=1;fontSize=10;" vertex="1" parent="1s8Oqz2JoPXFqwjpF97E-10">
          <mxGeometry y="50" width="140" height="20" as="geometry" />
        </mxCell>
        <mxCell id="1s8Oqz2JoPXFqwjpF97E-42" value="&lt;a style=&quot;border: 0px; vertical-align: middle; text-wrap: nowrap; font-family: Arial, sans-serif;&quot; id=&quot;D_SCHEDULE_DATE&quot;&gt;&lt;font style=&quot;font-size: 10px;&quot;&gt;D_SCHEDULE_DATE&lt;/font&gt;&lt;/a&gt;" style="text;strokeColor=none;fillColor=none;align=left;verticalAlign=middle;spacingLeft=4;spacingRight=4;overflow=hidden;points=[[0,0.5],[1,0.5]];portConstraint=eastwest;rotatable=0;whiteSpace=wrap;html=1;fontSize=10;" vertex="1" parent="1s8Oqz2JoPXFqwjpF97E-10">
          <mxGeometry y="70" width="140" height="20" as="geometry" />
        </mxCell>
        <mxCell id="1s8Oqz2JoPXFqwjpF97E-41" value="&lt;a style=&quot;border: 0px; vertical-align: middle; text-wrap: nowrap; font-family: Arial, sans-serif;&quot; id=&quot;D_STATION_ID&quot;&gt;&lt;font style=&quot;font-size: 10px;&quot;&gt;D_STATION_ID&lt;/font&gt;&lt;/a&gt;" style="text;strokeColor=none;fillColor=none;align=left;verticalAlign=middle;spacingLeft=4;spacingRight=4;overflow=hidden;points=[[0,0.5],[1,0.5]];portConstraint=eastwest;rotatable=0;whiteSpace=wrap;html=1;fontSize=10;" vertex="1" parent="1s8Oqz2JoPXFqwjpF97E-10">
          <mxGeometry y="90" width="140" height="20" as="geometry" />
        </mxCell>
        <mxCell id="1s8Oqz2JoPXFqwjpF97E-40" value="&lt;a style=&quot;border: 0px; vertical-align: middle; text-wrap: nowrap; font-family: Arial, sans-serif;&quot; id=&quot;D_SLOT_ID&quot;&gt;&lt;font style=&quot;font-size: 10px;&quot;&gt;D_SLOT_ID&lt;/font&gt;&lt;/a&gt;" style="text;strokeColor=none;fillColor=none;align=left;verticalAlign=middle;spacingLeft=4;spacingRight=4;overflow=hidden;points=[[0,0.5],[1,0.5]];portConstraint=eastwest;rotatable=0;whiteSpace=wrap;html=1;fontSize=10;" vertex="1" parent="1s8Oqz2JoPXFqwjpF97E-10">
          <mxGeometry y="110" width="140" height="20" as="geometry" />
        </mxCell>
        <mxCell id="1s8Oqz2JoPXFqwjpF97E-46" value="D_SCHEDULE_STATUS" style="text;strokeColor=none;fillColor=none;align=left;verticalAlign=middle;spacingLeft=4;spacingRight=4;overflow=hidden;points=[[0,0.5],[1,0.5]];portConstraint=eastwest;rotatable=0;whiteSpace=wrap;html=1;fontSize=10;" vertex="1" parent="1s8Oqz2JoPXFqwjpF97E-10">
          <mxGeometry y="130" width="140" height="20" as="geometry" />
        </mxCell>
        <mxCell id="1s8Oqz2JoPXFqwjpF97E-47" value="DOCTOR_NAME" style="text;strokeColor=none;fillColor=none;align=left;verticalAlign=middle;spacingLeft=4;spacingRight=4;overflow=hidden;points=[[0,0.5],[1,0.5]];portConstraint=eastwest;rotatable=0;whiteSpace=wrap;html=1;fontSize=10;" vertex="1" parent="1s8Oqz2JoPXFqwjpF97E-10">
          <mxGeometry y="150" width="140" height="20" as="geometry" />
        </mxCell>
        <mxCell id="1s8Oqz2JoPXFqwjpF97E-48" value="NURSING_STAFF&amp;nbsp;" style="text;strokeColor=none;fillColor=none;align=left;verticalAlign=middle;spacingLeft=4;spacingRight=4;overflow=hidden;points=[[0,0.5],[1,0.5]];portConstraint=eastwest;rotatable=0;whiteSpace=wrap;html=1;fontSize=10;" vertex="1" parent="1s8Oqz2JoPXFqwjpF97E-10">
          <mxGeometry y="170" width="140" height="20" as="geometry" />
        </mxCell>
        <mxCell id="1s8Oqz2JoPXFqwjpF97E-39" value="&lt;a style=&quot;text-wrap: nowrap; border: 0px; vertical-align: middle; font-family: Arial, sans-serif;&quot; id=&quot;CREATE_TIMESTAMP&quot;&gt;&lt;font style=&quot;font-size: 10px;&quot;&gt;CREATE_TIMESTAMP&lt;/font&gt;&lt;/a&gt;" style="text;strokeColor=none;fillColor=none;align=left;verticalAlign=middle;spacingLeft=4;spacingRight=4;overflow=hidden;points=[[0,0.5],[1,0.5]];portConstraint=eastwest;rotatable=0;whiteSpace=wrap;html=1;fontSize=10;" vertex="1" parent="1s8Oqz2JoPXFqwjpF97E-10">
          <mxGeometry y="190" width="140" height="20" as="geometry" />
        </mxCell>
        <mxCell id="1s8Oqz2JoPXFqwjpF97E-38" value="UPDATE_TIMESTAMP" style="text;strokeColor=none;fillColor=none;align=left;verticalAlign=middle;spacingLeft=4;spacingRight=4;overflow=hidden;points=[[0,0.5],[1,0.5]];portConstraint=eastwest;rotatable=0;whiteSpace=wrap;html=1;fontSize=10;" vertex="1" parent="1s8Oqz2JoPXFqwjpF97E-10">
          <mxGeometry y="210" width="140" height="20" as="geometry" />
        </mxCell>
        <mxCell id="1s8Oqz2JoPXFqwjpF97E-15" value="PATIENT" style="swimlane;fontStyle=0;childLayout=stackLayout;horizontal=1;startSize=30;horizontalStack=0;resizeParent=1;resizeParentMax=0;resizeLast=0;collapsible=1;marginBottom=0;whiteSpace=wrap;html=1;fontSize=10;" vertex="1" parent="1">
          <mxGeometry x="120" y="80" width="140" height="80" as="geometry" />
        </mxCell>
        <mxCell id="1s8Oqz2JoPXFqwjpF97E-16" value="PATIENT_ID (PK)" style="text;strokeColor=none;fillColor=none;align=left;verticalAlign=middle;spacingLeft=4;spacingRight=4;overflow=hidden;points=[[0,0.5],[1,0.5]];portConstraint=eastwest;rotatable=0;whiteSpace=wrap;html=1;fontSize=10;" vertex="1" parent="1s8Oqz2JoPXFqwjpF97E-15">
          <mxGeometry y="30" width="140" height="20" as="geometry" />
        </mxCell>
        <mxCell id="1s8Oqz2JoPXFqwjpF97E-19" style="text;strokeColor=none;fillColor=none;align=left;verticalAlign=middle;spacingLeft=4;spacingRight=4;overflow=hidden;points=[[0,0.5],[1,0.5]];portConstraint=eastwest;rotatable=0;whiteSpace=wrap;html=1;fontSize=10;" vertex="1" parent="1s8Oqz2JoPXFqwjpF97E-15">
          <mxGeometry y="50" width="140" height="30" as="geometry" />
        </mxCell>
        <mxCell id="1s8Oqz2JoPXFqwjpF97E-26" value="&lt;b&gt;BILL_ITEM&lt;/b&gt;" style="swimlane;fontStyle=0;childLayout=stackLayout;horizontal=1;startSize=30;horizontalStack=0;resizeParent=1;resizeParentMax=0;resizeLast=0;collapsible=1;marginBottom=0;whiteSpace=wrap;html=1;fontSize=10;" vertex="1" parent="1">
          <mxGeometry x="600" y="240" width="140" height="110" as="geometry" />
        </mxCell>
        <mxCell id="1s8Oqz2JoPXFqwjpF97E-27" value="BILL_ITEM_ID (PK)" style="text;strokeColor=none;fillColor=none;align=left;verticalAlign=middle;spacingLeft=4;spacingRight=4;overflow=hidden;points=[[0,0.5],[1,0.5]];portConstraint=eastwest;rotatable=0;whiteSpace=wrap;html=1;fontSize=10;" vertex="1" parent="1s8Oqz2JoPXFqwjpF97E-26">
          <mxGeometry y="30" width="140" height="20" as="geometry" />
        </mxCell>
        <mxCell id="1s8Oqz2JoPXFqwjpF97E-28" value="BILLING_ID (FK)" style="text;strokeColor=none;fillColor=none;align=left;verticalAlign=middle;spacingLeft=4;spacingRight=4;overflow=hidden;points=[[0,0.5],[1,0.5]];portConstraint=eastwest;rotatable=0;whiteSpace=wrap;html=1;fontSize=10;" vertex="1" parent="1s8Oqz2JoPXFqwjpF97E-26">
          <mxGeometry y="50" width="140" height="20" as="geometry" />
        </mxCell>
        <mxCell id="1s8Oqz2JoPXFqwjpF97E-29" value="BILL_ITEM" style="text;strokeColor=none;fillColor=none;align=left;verticalAlign=middle;spacingLeft=4;spacingRight=4;overflow=hidden;points=[[0,0.5],[1,0.5]];portConstraint=eastwest;rotatable=0;whiteSpace=wrap;html=1;fontSize=10;" vertex="1" parent="1s8Oqz2JoPXFqwjpF97E-26">
          <mxGeometry y="70" width="140" height="20" as="geometry" />
        </mxCell>
        <mxCell id="1s8Oqz2JoPXFqwjpF97E-30" value="AMOUNT" style="text;strokeColor=none;fillColor=none;align=left;verticalAlign=middle;spacingLeft=4;spacingRight=4;overflow=hidden;points=[[0,0.5],[1,0.5]];portConstraint=eastwest;rotatable=0;whiteSpace=wrap;html=1;fontSize=10;" vertex="1" parent="1s8Oqz2JoPXFqwjpF97E-26">
          <mxGeometry y="90" width="140" height="20" as="geometry" />
        </mxCell>
        <mxCell id="1s8Oqz2JoPXFqwjpF97E-32" value="" style="endArrow=ERoneToMany;html=1;rounded=0;exitX=0.994;exitY=0.154;exitDx=0;exitDy=0;exitPerimeter=0;entryX=-0.014;entryY=0.182;entryDx=0;entryDy=0;entryPerimeter=0;edgeStyle=orthogonalEdgeStyle;startArrow=ERmandOne;startFill=0;endFill=0;" edge="1" parent="1" source="1s8Oqz2JoPXFqwjpF97E-1" target="1s8Oqz2JoPXFqwjpF97E-26">
          <mxGeometry width="50" height="50" relative="1" as="geometry">
            <mxPoint x="400" y="270" as="sourcePoint" />
            <mxPoint x="450" y="220" as="targetPoint" />
          </mxGeometry>
        </mxCell>
        <mxCell id="1s8Oqz2JoPXFqwjpF97E-33" value="&lt;b&gt;BILLING_STATUS&lt;/b&gt;" style="swimlane;fontStyle=0;childLayout=stackLayout;horizontal=1;startSize=30;horizontalStack=0;resizeParent=1;resizeParentMax=0;resizeLast=0;collapsible=1;marginBottom=0;whiteSpace=wrap;html=1;fontSize=10;" vertex="1" parent="1">
          <mxGeometry x="600" y="20" width="140" height="110" as="geometry" />
        </mxCell>
        <mxCell id="1s8Oqz2JoPXFqwjpF97E-34" value="OPEN" style="text;strokeColor=none;fillColor=none;align=left;verticalAlign=middle;spacingLeft=4;spacingRight=4;overflow=hidden;points=[[0,0.5],[1,0.5]];portConstraint=eastwest;rotatable=0;whiteSpace=wrap;html=1;fontSize=10;" vertex="1" parent="1s8Oqz2JoPXFqwjpF97E-33">
          <mxGeometry y="30" width="140" height="20" as="geometry" />
        </mxCell>
        <mxCell id="1s8Oqz2JoPXFqwjpF97E-35" value="DUE" style="text;strokeColor=none;fillColor=none;align=left;verticalAlign=middle;spacingLeft=4;spacingRight=4;overflow=hidden;points=[[0,0.5],[1,0.5]];portConstraint=eastwest;rotatable=0;whiteSpace=wrap;html=1;fontSize=10;" vertex="1" parent="1s8Oqz2JoPXFqwjpF97E-33">
          <mxGeometry y="50" width="140" height="20" as="geometry" />
        </mxCell>
        <mxCell id="1s8Oqz2JoPXFqwjpF97E-36" value="PARTIALLY_PAID" style="text;strokeColor=none;fillColor=none;align=left;verticalAlign=middle;spacingLeft=4;spacingRight=4;overflow=hidden;points=[[0,0.5],[1,0.5]];portConstraint=eastwest;rotatable=0;whiteSpace=wrap;html=1;fontSize=10;" vertex="1" parent="1s8Oqz2JoPXFqwjpF97E-33">
          <mxGeometry y="70" width="140" height="20" as="geometry" />
        </mxCell>
        <mxCell id="1s8Oqz2JoPXFqwjpF97E-37" value="PAID" style="text;strokeColor=none;fillColor=none;align=left;verticalAlign=middle;spacingLeft=4;spacingRight=4;overflow=hidden;points=[[0,0.5],[1,0.5]];portConstraint=eastwest;rotatable=0;whiteSpace=wrap;html=1;fontSize=10;" vertex="1" parent="1s8Oqz2JoPXFqwjpF97E-33">
          <mxGeometry y="90" width="140" height="20" as="geometry" />
        </mxCell>
      </root>
    </mxGraphModel>
  </diagram>
</mxfile>
